<?xml version="1.0" encoding="UTF-8"?>
<svg version="1.1" xmlns="http://www.w3.org/2000/svg" width="500" height="500">
<path d="M0 0 C5.15481179 3.56122391 7.2092729 6.78204983 9.03515625 12.80078125 C9.28116074 13.55481735 9.52716522 14.30885345 9.78062439 15.08573914 C10.55987055 17.48913583 11.31147125 19.90015597 12.0625 22.3125 C12.56916776 23.88925006 13.07761803 25.46542849 13.58789062 27.04101562 C14.83922684 30.92092782 16.06327231 34.80879072 17.27813721 38.70025635 C18.0041838 41.01332893 18.74247037 43.32218349 19.48388672 45.63037109 C19.94635697 47.08038199 20.4087623 48.53041359 20.87109375 49.98046875 C21.08669449 50.64629471 21.30229523 51.31212067 21.52442932 51.99812317 C22.41006501 54.79630906 23 57.04273756 23 60 C23.72583282 59.99111755 24.45166565 59.98223511 25.19949341 59.9730835 C32.05525625 59.89278154 38.91094837 59.83195649 45.76706123 59.79275131 C49.29152694 59.77191731 52.81560253 59.74367798 56.33984375 59.69824219 C60.39587043 59.64628044 64.45149029 59.62702033 68.5078125 59.609375 C69.76739777 59.58872986 71.02698303 59.56808472 72.32473755 59.54681396 C83.20696197 59.54402953 83.20696197 59.54402953 88 64 C90.33041376 66.96598115 90.29584954 70.09771234 90.4609375 73.8046875 C89.00731804 80.72785817 83.38121389 84.26529793 77.9375 88 C76.32474678 89.13431692 74.71279509 90.26977413 73.1015625 91.40625 C71.84907715 92.28410156 71.84907715 92.28410156 70.57128906 93.1796875 C66.271904 96.22338433 62.04420954 99.36323748 57.8125 102.5 C52.57253264 106.37847807 47.31589427 110.22606711 42 114 C43.14799059 117.71323417 44.29752959 121.42598594 45.44778442 125.13851929 C46.06286429 127.12617721 46.67593444 129.11444722 47.28881836 131.1027832 C49.18655637 137.24669774 51.10624588 143.37734906 53.15625 149.47265625 C53.47972412 150.44509277 53.80319824 151.4175293 54.13647461 152.41943359 C54.73431419 154.20649005 55.34370268 155.98974353 55.96704102 157.76806641 C57.87181676 163.50115151 58.77626987 168.95366649 58 175 C55.95686327 178.50252011 53.90212767 180.77361702 50 182 C43.67916042 183.16097054 40.0428945 180.59480891 35 177.17578125 C31.3678415 174.54152046 27.8064674 171.82585112 24.2746582 169.05859375 C19.63604846 165.43768339 14.87450629 162.0112844 10.0625 158.625 C9.35270996 158.12524658 8.64291992 157.62549316 7.91162109 157.1105957 C6.56584955 156.16740948 5.21544662 155.23078693 3.85986328 154.30175781 C2.66284886 153.46394199 1.48663047 152.59516111 0.33935547 151.69042969 C-1.33290483 150.35354199 -1.33290483 150.35354199 -4 149 C-8.84911585 149.82283185 -13.12426449 153.7239302 -17.0625 156.5625 C-17.81692383 157.10044189 -18.57134766 157.63838379 -19.34863281 158.19262695 C-24.65241139 161.98885554 -29.8716181 165.8855957 -35.0703125 169.82421875 C-52.32606941 182.63949422 -52.32606941 182.63949422 -60 182 C-64.03029953 179.87078516 -66.29701939 178.21161585 -68 174 C-69.1857726 166.76856925 -66.79948868 160.28020465 -64.4296875 153.54296875 C-64.06980743 152.47758377 -63.70992737 151.41219879 -63.33914185 150.31452942 C-61.80845858 145.78332719 -60.24651831 141.26310419 -58.68505859 136.74243164 C-57.54606296 133.42995933 -56.42485162 130.1118469 -55.3046875 126.79296875 C-54.94438446 125.7700322 -54.58408142 124.74709564 -54.21286011 123.69316101 C-53.89237701 122.74149551 -53.57189392 121.78983002 -53.24169922 120.80932617 C-52.95301971 119.97487473 -52.66434021 119.14042328 -52.36691284 118.28068542 C-51.91461652 115.46926669 -52.45786413 114.34813456 -54 112 C-55.49035249 110.60016113 -55.49035249 110.60016113 -57.28125 109.44140625 C-58.28381836 108.74857544 -58.28381836 108.74857544 -59.30664062 108.04174805 C-60.03044922 107.55359619 -60.75425781 107.06544434 -61.5 106.5625 C-63.04235883 105.49839839 -64.5840014 104.433258 -66.125 103.3671875 C-66.92550781 102.81643555 -67.72601563 102.26568359 -68.55078125 101.69824219 C-75.44911446 96.91506777 -82.22378092 91.9539843 -89 87 C-90.010625 86.26265625 -91.02125 85.5253125 -92.0625 84.765625 C-92.866875 84.16234375 -93.67125 83.5590625 -94.5 82.9375 C-95.47453125 82.20853516 -95.47453125 82.20853516 -96.46875 81.46484375 C-99.50440428 78.56083774 -99.981434 76.23393161 -100.3125 72.0625 C-100.20007433 68.28218678 -99.46419347 65.9740266 -97 63 C-93.22555493 60.2771168 -90.64109975 59.62971456 -86.01635742 59.65942383 C-84.83551071 59.65965042 -83.654664 59.65987701 -82.43803406 59.66011047 C-81.17328751 59.67559433 -79.90854095 59.69107819 -78.60546875 59.70703125 C-77.30297684 59.71127609 -76.00048492 59.71552094 -74.65852356 59.71989441 C-71.20767733 59.73130988 -67.75721417 59.76074783 -64.30651855 59.79400635 C-60.78057028 59.82477892 -57.25455968 59.83841503 -53.72851562 59.85351562 C-46.81885376 59.88562132 -39.90944531 59.93677719 -33 60 C-32.73880371 58.7325293 -32.47760742 57.46505859 -32.20849609 56.15917969 C-31.01695658 50.80984178 -29.38503295 45.65254644 -27.6640625 40.453125 C-27.34343842 39.47889587 -27.02281433 38.50466675 -26.69247437 37.50091553 C-26.0174395 35.45635788 -25.33996348 33.41260472 -24.66015625 31.36962891 C-23.62453159 28.24858836 -22.60504325 25.12256111 -21.5859375 21.99609375 C-20.92546233 20.00227821 -20.26403667 18.00877723 -19.6015625 16.015625 C-19.14978134 14.62020477 -19.14978134 14.62020477 -18.68887329 13.19659424 C-17.09003291 8.4499323 -15.61411134 4.6240427 -12 1 C-7.67895053 -1.06658888 -4.57948928 -1.4310904 0 0 Z M-33 61 C-38.61 78.16 -44.22 95.32 -50 113 C-41.2328509 120.01371928 -32.35658619 126.81254902 -23.19311523 133.296875 C-17.37669773 137.41932532 -11.68063393 141.69270614 -6 146 C-3.35601338 144.73424249 -0.95132423 143.36324713 1.44140625 141.671875 C2.09842529 141.20845703 2.75544434 140.74503906 3.43237305 140.26757812 C4.13531494 139.76677734 4.83825684 139.26597656 5.5625 138.75 C6.29831299 138.22857422 7.03412598 137.70714844 7.79223633 137.16992188 C14.44711081 132.43470928 21.02494843 127.59609166 27.57836914 122.72167969 C31.6515964 119.69787508 35.74773951 116.76702118 40 114 C34.62951048 96.22175138 28.92842227 78.60000361 23 61 C4.52 61 -13.96 61 -33 61 Z " fill="#E32A28" transform="translate(255,152)"/>
<path d="M0 0 C4.15642098 1.38547366 5.50356035 4.30089198 7.8125 7.8125 C8.80366228 9.28714794 9.7958991 10.76107406 10.7890625 12.234375 C11.31274414 13.01490234 11.83642578 13.79542969 12.37597656 14.59960938 C15.09721678 18.62174314 17.89417659 22.59024843 20.6875 26.5625 C24.60875927 32.15029445 28.52065684 37.7443132 32.4140625 43.3515625 C33.512948 44.93408813 33.512948 44.93408813 34.6340332 46.54858398 C36.06831379 48.61521466 37.50176666 50.68242007 38.93432617 52.75024414 C39.58119385 53.68215576 40.22806152 54.61406738 40.89453125 55.57421875 C41.47050049 56.40526123 42.04646973 57.23630371 42.63989258 58.0925293 C43.86074892 59.91581942 43.86074892 59.91581942 45 61 C44.93941406 60.23445801 44.87882813 59.46891602 44.81640625 58.68017578 C44.54026931 55.16208494 44.27009689 51.6435595 44 48.125 C43.85691406 46.31902344 43.85691406 46.31902344 43.7109375 44.4765625 C43.19032942 37.63428483 42.85732616 30.86221524 43 24 C59.54463294 28.61079934 71.79068939 39.956809 80.28515625 54.6875 C94.56986541 82.28074229 92.8125457 115.86302458 84 145 C81.01402728 142.20834221 78.90269774 139.44180683 76.8125 135.9375 C73.01786973 129.85314613 68.67179795 124.42938681 64 119 C63.278125 118.154375 62.55625 117.30875 61.8125 116.4375 C54.13535308 107.6636178 45.91509322 100.05851415 36.25 93.5625 C35.63624512 93.14935547 35.02249023 92.73621094 34.39013672 92.31054688 C31.43400907 90.38281071 29.00911556 89.00285674 25.5925293 87.93212891 C20.64107142 85.83317961 19.11709001 81.6161691 16.94140625 76.95703125 C16.50738998 76.0734343 16.07337372 75.18983734 15.62620544 74.27946472 C14.25056811 71.46682581 12.90637441 68.6404311 11.5625 65.8125 C10.63289718 63.89809768 9.7012781 61.98467302 8.76757812 60.07226562 C6.48823803 55.39258486 4.2344991 50.70124287 2 46 C1.34 46 0.68 46 0 46 C-0.76291089 47.50614786 -1.52485268 49.01279103 -2.28320312 50.52124023 C-2.98357331 51.91018594 -3.68952504 53.29632813 -4.40039062 54.67993164 C-6.5999992 59.01146135 -8.58952147 63.36537867 -10.41796875 67.8671875 C-15.84491327 80.85982031 -20.08946919 87.37890788 -32.9921875 93.01464844 C-51.77169787 102.23085756 -66.6204594 122.2280137 -77.18408203 139.73364258 C-78.0739211 141.18679538 -79.0308666 142.59848401 -80 144 C-80.66 144 -81.32 144 -82 144 C-90.33857295 114.36973107 -92.9502876 83.56934364 -78.875 55.25 C-70.90659382 41.30096793 -58.17895635 29.48128979 -43 24 C-42.34 24 -41.68 24 -41 24 C-40.84435635 32.44474896 -41.32856344 40.77185932 -42 49.1875 C-42.14308594 51.0447168 -42.14308594 51.0447168 -42.2890625 52.93945312 C-42.52230525 55.95994678 -42.75935432 58.98008869 -43 62 C-42.60844727 61.42258057 -42.21689453 60.84516113 -41.81347656 60.25024414 C-34.83917217 49.9730183 -27.84835559 39.71218742 -20.65820312 29.58447266 C-13.69840246 19.77471324 -6.85865269 9.88059917 0 0 Z " fill="#E32A28" transform="translate(249,328)"/>
<path d="M0 0 C20.29088431 9.71532272 37.99534884 34.57203137 45.97265625 55.0390625 C52.74247765 74.55056297 52.42471308 94.09226326 44 113 C42.46855128 115.8215278 40.84434855 118.36521635 39 121 C36.02369551 118.21940434 33.91384969 115.49031916 31.87109375 111.97265625 C31.31099609 111.01552734 30.75089844 110.05839844 30.17382812 109.07226562 C29.60083984 108.07904297 29.02785156 107.08582031 28.4375 106.0625 C27.86064453 105.07314453 27.28378906 104.08378906 26.68945312 103.06445312 C25.61357555 101.2192052 24.54027591 99.37244993 23.47045898 97.52368164 C22.00182222 95.00312739 20.50088982 92.50148304 19 90 C19 114.75 19 139.5 19 165 C8.87461972 162.74991549 8.87461972 162.74991549 5.20898438 161.49121094 C4.38362183 161.21041687 3.55825928 160.9296228 2.70788574 160.64031982 C1.84522095 160.34135803 0.98255615 160.04239624 0.09375 159.734375 C-0.829823 159.41849426 -1.753396 159.10261353 -2.70495605 158.77716064 C-5.63820392 157.77260762 -8.56908759 156.76134391 -11.5 155.75 C-13.43475021 155.08681459 -15.36964503 154.42405092 -17.3046875 153.76171875 C-28.5587469 149.9038799 -39.78944252 145.98240284 -51 142 C-51.33 142.33 -51.66 142.66 -52 143 C-51.43152344 143.6290625 -50.86304688 144.258125 -50.27734375 144.90625 C-47.84710954 147.60019911 -45.42216881 150.29879734 -43 153 C-42.05447266 154.05380859 -42.05447266 154.05380859 -41.08984375 155.12890625 C-36.83937998 159.92157041 -32.88072912 164.90433137 -29 170 C-39.17734324 175.45214817 -54.82493463 174.38116758 -65.75 171.75 C-67.51194239 171.20379786 -69.26366015 170.62281755 -71 170 C-71.83015625 169.73316406 -72.6603125 169.46632812 -73.515625 169.19140625 C-98.0341551 160.51739796 -114.97760814 137.47865481 -126 115 C-127.43919411 111.90059733 -128.80440204 108.77663981 -130.125 105.625 C-130.58664551 104.52696045 -130.58664551 104.52696045 -131.05761719 103.40673828 C-131.77116615 101.62962137 -132.39441791 99.81674626 -133 98 C-132.505 97.01 -132.505 97.01 -132 96 C-130.86046875 96.44730469 -129.7209375 96.89460938 -128.546875 97.35546875 C-108.92613291 104.90996787 -81.7368274 114.91111239 -60.5859375 109.0546875 C-46.65795542 105.56536146 -36.10457596 113.26090175 -24.34619141 120.07763672 C-18.9615558 123.17107177 -13.48069515 126.08083003 -8 129 C-9.36381811 118.5235966 -10.74236339 108.07379547 -12.6875 97.6875 C-13.14117813 95.12726962 -13.57389615 92.56508876 -14 90 C-14.14308594 89.16855469 -14.28617187 88.33710937 -14.43359375 87.48046875 C-14.96000837 81.68990796 -12.37088703 77.24256734 -9.85327148 72.20605469 C1.15440785 49.66454279 0.31213137 24.43028203 0 0 Z " fill="#E32A28" transform="translate(181,25)"/>
<path d="M0 0 C3.96307852 3.34834357 7.28277679 6.9361391 10.5 11 C7.10095548 13.26602968 3.89877717 14.03368025 -0.01171875 14.9453125 C-0.73994339 15.12005096 -1.46816803 15.29478943 -2.21846008 15.474823 C-4.54016442 16.03054753 -6.86375701 16.57786961 -9.1875 17.125 C-10.76380367 17.50074963 -12.33997728 17.87704531 -13.91601562 18.25390625 C-17.77586427 19.17560932 -21.63742741 20.0897827 -25.5 21 C-20.99240434 23.00252565 -16.57003818 24.68626596 -11.83032227 26.0847168 C-11.20507156 26.27047272 -10.57982086 26.45622864 -9.93562317 26.64761353 C-7.89705187 27.25217922 -5.85677416 27.85074753 -3.81640625 28.44921875 C-2.39140516 28.87054408 -0.96651567 29.29224706 0.45826721 29.71430969 C4.18728202 30.81786086 7.91777968 31.91631277 11.64862061 33.01367188 C15.4639302 34.13686907 19.27779962 35.26493441 23.09179688 36.39257812 C30.55980512 38.59979091 38.0293883 40.80161301 45.5 43 C44.72010031 46.4775632 43.58526737 48.56279598 41.4375 51.4375 C40.72335938 52.3965625 40.00921875 53.355625 39.2734375 54.34375 C38.35023668 55.56346863 37.42558664 56.78209086 36.5 58 C35.90606445 58.78246094 35.31212891 59.56492187 34.70019531 60.37109375 C31.25179605 64.90980826 27.79585378 69.44271687 24.3359375 73.97265625 C16.2582616 84.55186907 8.3539053 95.25409593 0.5 106 C1.19971924 105.68772461 1.89943848 105.37544922 2.62036133 105.05371094 C5.84937127 103.61528297 9.08090824 102.18261767 12.3125 100.75 C13.41271484 100.25886719 14.51292969 99.76773438 15.64648438 99.26171875 C22.51011806 96.22471269 29.40740557 93.45660302 36.5 91 C35.89414873 111.52835844 28.01637428 127.61452464 13.25 141.6015625 C-8.89567144 160.91611117 -37.16307938 165.85710849 -65.5 168 C-64.04896167 164.00964458 -62.23066764 161.50648476 -59.40625 158.3359375 C-52.35465615 149.69484504 -46.58447992 139.89329527 -41.5 130 C-41.07203125 129.22914063 -40.6440625 128.45828125 -40.203125 127.6640625 C-35.90401147 119.67620342 -31.99186709 110.07302296 -31.25366211 100.95849609 C-29.7917655 88.15341548 -21.29977645 81.55350689 -12.3125 73.125 C-10.78198076 71.64974996 -9.25396016 70.17190305 -7.72851562 68.69140625 C-4.01382999 65.09699402 -0.26702789 61.53948502 3.5 58 C2.67220284 57.90509529 2.67220284 57.90509529 1.8276825 57.80827332 C-3.97267783 57.13372098 -9.76181212 56.39235284 -15.54907227 55.61352539 C-17.70286467 55.33235776 -19.85888143 55.06767438 -22.0168457 54.82055664 C-42.81310064 52.41895256 -42.81310064 52.41895256 -49.09375 45.53125 C-50.19686523 44.1380957 -50.19686523 44.1380957 -51.32226562 42.71679688 C-65.63469136 24.8615644 -95.66191251 17.32544744 -116.5 11 C-116.5 10.34 -116.5 9.68 -116.5 9 C-80.87776675 -12.28101904 -36.84212481 -28.37393493 0 0 Z " fill="#E32A28" transform="translate(126.5,233)"/>
<path d="M0 0 C-0.02356567 1.28910278 -0.02356567 1.28910278 -0.04760742 2.60424805 C-0.46330563 28.88093496 -0.52182365 54.97061743 12.9609375 78.44921875 C15.89781796 88.48540048 12.21861584 100.48934173 10.4375 110.5625 C9.97369594 113.20894882 9.51518821 115.85619086 9.05859375 118.50390625 C8.75393188 120.23362671 8.75393188 120.23362671 8.44311523 121.99829102 C7.90264111 125.15381274 7.90264111 125.15381274 8 129 C9.89637139 128.00088319 11.79259759 127.00149014 13.68823242 126.00097656 C15.37699585 125.11345607 17.06865528 124.23142759 18.76293945 123.35449219 C23.37789617 120.95665252 27.91122422 118.48635108 32.375 115.81640625 C44.18587578 108.90171868 50.63471838 106.87226346 64 110 C87.42425974 112.10030722 111.39569986 104.20600308 133 96 C129.7158363 119.35919252 110.45972239 144.22309685 92.5 158.5 C75.78054638 170.74699978 57.53659273 174.73252722 37 173 C34.25986405 172.47762747 31.68043766 171.78965945 29 171 C30.5277867 167.56247993 32.50181056 164.81046312 35 162 C35.66 162 36.32 162 37 162 C37.22945313 161.45214844 37.45890625 160.90429688 37.6953125 160.33984375 C39.37604205 157.32560122 41.51953318 155.08222044 43.875 152.5625 C47.06574439 149.13840266 50.11992207 145.69051846 53 142 C41.97682837 144.64088361 31.36364049 148.61387091 20.6875 152.375 C18.78462354 153.04200435 16.88162949 153.70867334 14.97851562 154.375 C13.11452725 155.02848588 11.25059415 155.68212946 9.38671875 156.3359375 C8.48452606 156.65230164 7.58233337 156.96866577 6.65280151 157.2946167 C2.64813734 158.70253409 -1.35099503 160.12126358 -5.33349609 161.59082031 C-5.97917038 161.82757477 -6.62484467 162.06432922 -7.29008484 162.30825806 C-8.96515207 162.92490717 -10.63737702 163.54926249 -12.30932617 164.17431641 C-15 165 -15 165 -19 165 C-18.67 139.92 -18.34 114.84 -18 89 C-24.27 99.56 -30.54 110.12 -37 121 C-43.2306873 117.88465635 -44.54809679 112.29505487 -47 106 C-53.3161368 86.90583258 -51.77874088 66.31435587 -43.13183594 48.17919922 C-38.68691875 39.45198377 -33.08167232 31.66012163 -27 24 C-26.46890625 23.31421875 -25.9378125 22.6284375 -25.390625 21.921875 C-24.31571289 20.56875034 -23.16773005 19.27388732 -22 18 C-21.34 18 -20.68 18 -20 18 C-19.731875 17.401875 -19.46375 16.80375 -19.1875 16.1875 C-18.00082594 14.00152146 -16.90400887 12.58667406 -15 11 C-14.34 11 -13.68 11 -13 11 C-13 10.34 -13 9.68 -13 9 C-11.26608049 7.39365985 -9.461909 5.8624713 -7.625 4.375 C-6.62726563 3.55773437 -5.62953125 2.74046875 -4.6015625 1.8984375 C-2 0 -2 0 0 0 Z " fill="#E32A28" transform="translate(319,25)"/>
<path d="M0 0 C0 0.66 0 1.32 0 2 C-1.1859375 2.36351562 -2.371875 2.72703125 -3.59375 3.1015625 C-38.69958738 13.06003181 -38.69958738 13.06003181 -66.54663086 35.17358398 C-72.99340592 43.45914451 -81.3326409 43.96681338 -91.14257812 45.27929688 C-93.28245101 45.54119177 -95.42242654 45.80224921 -97.5625 46.0625 C-99.73810078 46.35524783 -101.91324102 46.65144011 -104.08789062 46.95117188 C-109.38725808 47.67399686 -114.69077544 48.3537854 -120 49 C-119.60354279 49.38091293 -119.20708557 49.76182587 -118.7986145 50.15428162 C-114.65702212 54.14040392 -110.54076606 58.15143677 -106.43798828 62.17749023 C-104.90586882 63.67451682 -103.36751104 65.16518743 -101.82275391 66.64916992 C-99.59667963 68.78984676 -97.39442543 70.95276971 -95.1953125 73.12109375 C-94.50567413 73.77460312 -93.81603577 74.42811249 -93.10549927 75.10142517 C-88.42841016 79.77465353 -86.86057982 83.50080885 -86 90 C-80.46597099 112.90943012 -70.53504471 132.13981938 -55.953125 150.58984375 C-55.30859375 151.40582031 -54.6640625 152.22179687 -54 153.0625 C-53.4225 153.77535156 -52.845 154.48820313 -52.25 155.22265625 C-51 157 -51 157 -51 159 C-82.4934097 156.59688842 -115.08308606 150.95560456 -136.86328125 125.7890625 C-147.23156827 113.17268424 -152.09018313 99.21983869 -153 83 C-148.63044684 83.67532777 -144.76903081 85.21276738 -140.73046875 86.94140625 C-140.04946609 87.22853989 -139.36846344 87.51567352 -138.66682434 87.81150818 C-136.5051638 88.72412034 -134.34632419 89.6432013 -132.1875 90.5625 C-130.71697872 91.18467475 -129.24627741 91.8064242 -127.77539062 92.42773438 C-124.18149081 93.94690673 -120.59010569 95.47188423 -117 97 C-123.6223478 88.13257596 -130.28509935 79.29758851 -137 70.5 C-141.91621086 64.0568774 -146.82182461 57.6064003 -151.6875 51.125 C-152.39036133 50.19010742 -152.39036133 50.19010742 -153.10742188 49.23632812 C-154.4115101 47.49564559 -155.70718829 45.74906919 -157 44 C-157.47518066 43.36416992 -157.95036133 42.72833984 -158.43994141 42.07324219 C-162 37.23076333 -162 37.23076333 -162 35 C-138.0499324 27.50102089 -114.02958154 20.23932573 -90 13 C-98.41440754 10.54033273 -106.83324747 8.22979395 -115.375 6.25 C-116.3134375 6.02957031 -117.251875 5.80914062 -118.21875 5.58203125 C-120.47848347 5.05168564 -122.73886687 4.52433949 -125 4 C-125 -0.43801534 -124.14256677 -1.79407554 -121.22265625 -5.00390625 C-86.6678143 -36.03646203 -34.68134866 -25.69435571 0 0 Z " fill="#E32A28" transform="translate(490,242)"/>
<path d="M0 0 C5.93083524 5.05799534 9.47073013 10.90857298 10.27734375 18.66796875 C10.48592971 24.71696164 9.73136817 29.59690052 7 35 C6.484375 36.03125 5.96875 37.0625 5.4375 38.125 C0.6962516 43.71724171 -5.91356086 47.45566178 -13.2265625 48.23828125 C-21.55402822 48.49597156 -28.59733011 46.5369496 -34.875 40.875 C-40.38542431 34.76533333 -42.69532272 27.54709982 -42.32421875 19.3828125 C-41.4179048 12.72195095 -38.50519034 6.08627735 -33.3984375 1.58984375 C-23.59301767 -5.81821573 -10.57179052 -6.51134502 0 0 Z " fill="#E32A28" transform="translate(459,293)"/>
<path d="M0 0 C6.44105063 4.53213505 9.16977922 10.47212762 11 18 C12.1114549 25.00974395 10.27379027 31.60839917 6.37109375 37.4296875 C1.14785475 43.86640626 -4.29551525 47.15587842 -12.5078125 48.37109375 C-19.76406566 48.74641719 -25.61813082 46.19093459 -32 43 C-32 42.34 -32 41.68 -32 41 C-32.99 40.67 -33.98 40.34 -35 40 C-36.3515625 38.29296875 -36.3515625 38.29296875 -37.625 36.1875 C-38.05039062 35.50042969 -38.47578125 34.81335938 -38.9140625 34.10546875 C-42.06118961 28.00366475 -41.85493015 20.29638628 -40.5390625 13.68359375 C-38.31352517 6.99389035 -34.14125969 1.86898547 -27.875 -1.375 C-18.53203823 -5.6900225 -8.9334841 -5.04479102 0 0 Z " fill="#E32A28" transform="translate(387,70)"/>
<path d="M0 0 C5.63729037 6.0305897 7.99242085 11.71305699 8.25 20 C8.02055114 25.87644021 7.09889833 30.08785742 3.6875 34.875 C2.945 35.9475 2.2025 37.02 1.4375 38.125 C-3.91947088 43.48197088 -10.40795888 45.95450117 -17.9375 46.1875 C-26.01202945 46.0450083 -32.11006763 43.57552429 -37.75 37.75 C-42.84575157 31.43704461 -44.67383612 25.32519341 -44.25 17.25 C-43.12625911 8.93899967 -39.96638122 3.62135604 -33.4453125 -1.6484375 C-22.47699835 -9.24188576 -10.70015959 -6.86425332 0 0 Z " fill="#E32A28" transform="translate(146.3125,72.125)"/>
<path d="M0 0 C6.03098652 4.26845169 10.52281819 10.07656745 11.96484375 17.390625 C12.91430638 26.52418801 11.56781216 33.42418219 5.83984375 40.640625 C-0.01393609 46.82299539 -5.65633076 48.60203268 -14.09765625 48.890625 C-20.02560979 48.70557586 -24.20793688 47.83058273 -29.03515625 44.390625 C-30.10765625 43.648125 -31.18015625 42.905625 -32.28515625 42.140625 C-37.48040542 36.94537583 -40.12463927 30.54677672 -40.28515625 23.203125 C-40.13975167 15.13978029 -37.63245536 8.95519747 -32.03125 3.12109375 C-23.41791224 -4.34604642 -10.05959242 -5.32015689 0 0 Z " fill="#E32A28" transform="translate(264.03515625,426.609375)"/>
<path d="M0 0 C5.62984571 3.70223549 9.75445097 8.84123418 11.74609375 15.34375 C13.31889566 23.29763393 12.13518464 30.37193865 8.15625 37.41796875 C3.62411495 43.85901938 -2.31587762 46.58774797 -9.84375 48.41796875 C-16.86156757 49.53070379 -23.41414681 47.667612 -29.2734375 43.82421875 C-36.02266505 38.42483671 -38.87861416 32.53388215 -40.21484375 24.06640625 C-40.61444156 17.21269839 -38.35499919 10.90840528 -34.37109375 5.37109375 C-25.23218346 -4.74004104 -11.69834198 -6.60808242 0 0 Z " fill="#E32A28" transform="translate(70.84375,292.58203125)"/>
</svg>
